<svg width="100" height="100" viewBox="0 0 100 100" fill="none" xmlns="http://www.w3.org/2000/svg">
<circle cx="50" cy="50" r="50" fill="#FF6B6B" fill-opacity="0.1"/>
<path d="M30 70L39.3 44L56.15 60.65L30 70ZM53.85 51.75L52.15 50.05L64.15 38.05C65.2167 36.9833 66.5667 36.4416 68.2 36.425C69.8333 36.4083 71.1833 36.9333 72.25 38L73.1 38.85L71.4 40.55L70.45 39.6C69.8167 38.9666 69.0833 38.6416 68.25 38.625C67.4167 38.6083 66.6667 38.9333 66 39.6L53.85 51.75ZM45.9 44L44.2 42.3L45.7 40.8C46.4667 40.0333 46.825 39.1583 46.775 38.175C46.725 37.1916 46.3667 36.3666 45.7 35.7L44.3 34.3L46 32.6L47.3 33.9C48.4667 35.0666 49.0417 36.525 49.025 38.275C49.0083 40.025 48.4167 41.4833 47.25 42.65L45.9 44ZM49.95 47.85L48.25 46.15L55.85 38.55C56.4833 37.9166 56.7917 37.1083 56.775 36.125C56.7583 35.1416 56.4333 34.3333 55.8 33.7L52.75 30.65L54.45 28.95L57.6 32.1C58.6333 33.1666 59.1667 34.5083 59.2 36.125C59.2333 37.7416 58.7167 39.0833 57.65 40.15L49.95 47.85ZM57.85 55.8L56.15 54.1L58.5 51.75C59.6667 50.5833 61.0667 49.9833 62.7 49.95C64.3333 49.9166 65.7333 50.4833 66.9 51.65L69.45 54.2L67.75 55.9L65.15 53.3C64.3833 52.5333 63.5833 52.15 62.75 52.15C61.9167 52.15 61.1167 52.5333 60.35 53.3L57.85 55.8Z" fill="#FF6B6B"/>
</svg>
